<svg width="429" height="621" viewBox="0 0 429 621" fill="none" xmlns="http://www.w3.org/2000/svg">
<g opacity="0.12" clip-path="url(#clip0_0_45)">
<path fill-rule="evenodd" clip-rule="evenodd" d="M-96.6979 668.796C121.488 516.116 57.5789 463.639 257.152 467.926C456.725 472.213 527.895 144.604 351.419 27.8324C174.943 -88.9388 138.097 -26.5402 77.9048 -184.617C17.7123 -342.693 -325.429 -321.043 -330.293 -113.99C-335.156 93.0628 -521.56 -1.58936 -522.302 132.863C-523.045 267.316 -392.692 292.149 -393.226 400.661C-402.141 589.482 -298.253 809.838 -96.6979 668.796Z" stroke="white" stroke-width="3"/>
<path fill-rule="evenodd" clip-rule="evenodd" d="M-44.6264 264.064C-13.388 239.622 11.5264 232.535 27.7167 226.784C70.8301 211.469 73.7212 167.691 52.2106 137.634C30.6999 107.577 13.7393 128.665 -2.13974 83.9622C-21.4467 29.609 -77.0382 62.0609 -91.4003 93.7882C-103.203 119.861 -117.218 106.835 -117.528 155.892C-117.646 174.526 -99.7195 196.3 -104.421 225.606C-109.555 257.609 -63.3823 278.739 -44.6264 264.064Z" stroke="white" stroke-width="3"/>
<path fill-rule="evenodd" clip-rule="evenodd" d="M-93.0445 632.403C108.146 491.381 52.312 443.03 235.214 446.405C420.563 448.91 485.526 147.103 323.138 38.2152C160.75 -70.6728 125.712 -12.0297 69.5476 -159.8C13.072 -308.447 -303.928 -285.815 -309.655 -94.7004C-315.15 95.8999 -485.882 8.66831 -486.585 135.358C-487.271 259.282 -367.138 283.837 -368.052 385.147C-376.623 559.713 -277.981 761.957 -93.0445 632.403Z" stroke="white" stroke-width="3"/>
<path fill-rule="evenodd" clip-rule="evenodd" d="M-89.3994 595.989C94.7962 466.625 47.0367 422.401 213.267 424.863C384.393 425.586 443.149 149.582 294.849 48.5771C146.548 -52.4278 113.318 2.45977 61.1821 -135.003C8.42339 -274.221 -282.436 -250.607 -289.027 -75.4316C-295.152 98.7159 -450.212 18.9049 -450.876 137.831C-451.505 251.226 -341.593 275.503 -342.885 369.613C-351.113 529.922 -257.718 714.055 -89.3994 595.989Z" stroke="white" stroke-width="3"/>
<path fill-rule="evenodd" clip-rule="evenodd" d="M-85.7333 559.583C81.4671 441.877 41.7824 401.779 191.342 403.328C348.244 402.27 400.793 152.068 266.58 58.9467C132.368 -34.1752 100.945 16.9569 52.8377 -110.2C3.79579 -239.988 -260.923 -215.392 -268.377 -56.1551C-275.133 101.54 -414.521 29.1492 -415.146 140.312C-415.718 243.178 -316.027 267.177 -317.698 354.087C-325.582 500.14 -237.434 666.161 -85.7333 559.583Z" stroke="white" stroke-width="3"/>
<path fill-rule="evenodd" clip-rule="evenodd" d="M-82.0945 523.176C68.1106 417.128 36.5008 381.156 169.389 381.793C312.068 378.953 358.409 154.554 238.284 69.3157C118.16 -15.923 88.5444 31.4536 44.4659 -85.3962C-0.8591 -205.755 -239.437 -180.177 -247.754 -36.8791C-255.141 104.363 -378.858 39.393 -379.443 142.793C-379.959 235.13 -290.488 258.851 -292.538 338.56C-300.078 470.356 -217.177 618.266 -82.0945 523.176Z" stroke="white" stroke-width="3"/>
<path fill-rule="evenodd" clip-rule="evenodd" d="M-77.6937 486.508C55.5162 392.118 31.9813 360.272 148.199 359.997C276.653 355.374 316.788 156.779 210.751 79.4232C104.714 2.06763 76.9062 45.6887 36.8562 -60.8544C-4.75196 -171.784 -217.189 -145.224 -226.37 -17.8646C-234.388 106.925 -342.432 49.3754 -342.979 145.012C-343.437 226.82 -264.187 250.263 -266.616 322.771C-273.812 440.312 -196.158 570.11 -77.6937 486.508Z" stroke="white" stroke-width="3"/>
<path fill-rule="evenodd" clip-rule="evenodd" d="M-72.4189 449.518C43.7958 366.786 28.3358 339.067 127.882 337.879C242.113 331.474 276.04 158.681 184.091 89.2087C92.1416 19.7363 66.142 59.6018 30.1205 -36.6346C-7.77078 -138.135 -194.067 -110.593 -204.111 0.827918C-212.76 109.165 -305.133 59.0357 -305.64 146.909C-306.042 218.188 -237.012 241.353 -239.82 306.661C-246.672 409.945 -174.265 521.632 -72.4189 449.518Z" stroke="white" stroke-width="3"/>
<path fill-rule="evenodd" clip-rule="evenodd" d="M-67.0788 412.526C32.1406 341.452 24.7555 317.859 107.63 315.758C207.638 307.572 235.358 160.582 157.496 98.9926C79.6348 37.4033 55.443 73.5133 23.45 -12.4164C-10.7244 -104.487 -170.879 -75.9633 -181.788 19.5188C-191.067 111.403 -267.768 68.6944 -268.236 148.804C-268.581 209.555 -209.772 232.441 -212.958 290.549C-219.467 379.576 -152.307 473.152 -67.0788 412.526Z" stroke="white" stroke-width="3"/>
<path fill-rule="evenodd" clip-rule="evenodd" d="M-61.6766 375.495C20.5476 316.079 21.2374 296.612 87.4411 293.599C173.225 283.631 194.738 162.444 130.964 108.737C67.1902 55.0313 44.8062 87.3858 16.8417 11.7627C-13.6158 -70.8787 -147.63 -41.3728 -159.402 38.1706C-169.312 113.602 -230.342 78.3139 -230.77 150.661C-231.058 200.882 -182.47 223.49 -186.035 274.397C-192.2 349.169 -130.287 424.633 -61.6766 375.495Z" stroke="white" stroke-width="3"/>
<path fill-rule="evenodd" clip-rule="evenodd" d="M-56.1711 338.412C9.05784 290.654 17.8225 275.315 67.3551 271.389C138.916 259.638 154.221 164.254 104.535 118.431C54.8489 72.608 34.2727 101.207 10.3367 35.8907C-16.404 -37.3213 -124.277 -6.83343 -136.912 56.7712C-147.453 115.75 -192.812 87.8824 -193.2 152.466C-193.432 192.158 -155.064 214.488 -159.008 258.195C-164.83 318.71 -108.163 376.063 -56.1711 338.412Z" stroke="white" stroke-width="3"/>
<path fill-rule="evenodd" clip-rule="evenodd" d="M-50.5172 301.294C-2.28354 265.194 14.556 253.981 47.4175 249.142C104.754 235.61 113.853 166.028 78.2543 128.088C42.6559 90.1485 23.8876 114.992 3.98002 59.9823C-19.0438 -3.80029 -100.776 27.6696 -114.275 75.3355C-125.446 117.861 -155.133 97.4145 -155.482 154.235C-155.657 183.398 -127.51 205.45 -131.833 241.956C-137.311 288.215 -85.8911 327.457 -50.5172 301.294Z" stroke="white" stroke-width="3"/>
</g>
<defs>
<clipPath id="clip0_0_45">
<rect width="934.402" height="912.574" fill="white" transform="translate(-505.852 -292.307)"/>
</clipPath>
</defs>
</svg>
