<svg width="547" height="562" viewBox="0 0 547 562" fill="none" xmlns="http://www.w3.org/2000/svg">
<g opacity="0.12" clip-path="url(#clip0_0_277)">
<path fill-rule="evenodd" clip-rule="evenodd" d="M112.644 594.122C288.76 490.682 243.095 446.667 395.417 462.103C547.74 477.538 622.111 231.399 494.3 131.371C366.488 31.3424 334.516 76.8047 298.126 -47.7198C261.735 -172.244 -1.93261 -176.596 -18.2647 -18.5891C-34.5969 139.417 -171.346 55.6955 -180.104 158.446C-188.863 261.197 -90.7137 288.125 -97.7327 371.054C-116.051 514.875 -50.047 689.678 112.644 594.122Z" stroke="white" stroke-width="3"/>
<path fill-rule="evenodd" clip-rule="evenodd" d="M177.112 287.854C202.484 271.07 221.965 267.17 234.693 263.759C268.589 254.677 273.466 221.382 258.851 197.091C244.236 172.801 229.984 187.891 220.567 152.746C209.117 110.014 164.637 131.438 151.724 154.82C141.112 174.035 131.19 163.223 127.965 200.71C126.74 214.95 139.119 232.69 133.739 254.809C127.864 278.964 161.878 297.932 177.112 287.854Z" stroke="white" stroke-width="3"/>
<path fill-rule="evenodd" clip-rule="evenodd" d="M117.655 566.518C280.067 470.955 240.324 430.587 379.956 444.309C521.513 457.516 589.566 230.726 472.045 137.583C354.524 44.4402 324.163 87.1414 290.225 -29.2577C256.102 -146.347 12.3601 -148.355 -3.66125 -2.58662C-19.4734 142.802 -144.692 65.7086 -152.948 162.527C-161.022 257.231 -70.6699 283.323 -77.5399 360.725C-94.7272 493.667 -31.6311 654.302 117.655 566.518Z" stroke="white" stroke-width="3"/>
<path fill-rule="evenodd" clip-rule="evenodd" d="M122.661 538.9C271.369 451.215 237.549 414.493 364.491 426.503C495.281 437.48 557.017 230.04 449.787 143.782C342.556 57.5245 313.806 97.4646 282.32 -10.8091C250.464 -120.462 26.6485 -120.127 10.938 13.4023C-4.35413 146.174 -118.043 75.7082 -125.796 166.593C-133.185 253.251 -50.6303 278.508 -57.3513 350.381C-73.4074 472.445 -13.2194 618.913 122.661 538.9Z" stroke="white" stroke-width="3"/>
<path fill-rule="evenodd" clip-rule="evenodd" d="M127.678 511.294C262.682 431.487 234.784 398.412 349.035 408.708C469.06 417.457 524.478 229.366 427.538 149.994C330.599 70.621 303.459 107.8 274.425 7.65153C244.837 -94.566 40.9473 -91.8875 25.5476 29.4033C10.7755 149.558 -91.384 85.72 -98.6336 170.672C-105.338 249.283 -30.5804 273.705 -37.1523 340.05C-52.0772 451.235 5.20259 583.537 127.678 511.294Z" stroke="white" stroke-width="3"/>
<path fill-rule="evenodd" clip-rule="evenodd" d="M132.682 483.679C253.982 411.75 232.006 382.322 333.567 390.905C442.826 397.425 491.926 228.684 405.277 156.196C318.628 83.7091 293.1 118.127 266.518 26.1039C239.196 -68.6779 55.2333 -63.6562 40.1444 45.396C25.8923 152.933 -64.7375 95.7234 -71.4841 174.742C-77.5032 245.307 -10.5433 268.894 -16.9662 329.71C-30.7599 430.016 23.6118 548.152 132.682 483.679Z" stroke="white" stroke-width="3"/>
<path fill-rule="evenodd" clip-rule="evenodd" d="M138.281 455.911C245.877 391.86 229.824 366.079 318.694 372.948C417.187 377.239 459.97 227.848 383.611 162.246C307.253 96.6436 283.335 128.3 259.205 44.4027C234.151 -42.9434 70.1145 -35.5784 55.3364 61.2352C41.6043 156.155 -37.4957 105.573 -43.7393 178.659C-49.0736 241.178 10.0891 263.929 3.81516 319.217C-8.84728 408.645 42.6162 512.613 138.281 455.911Z" stroke="white" stroke-width="3"/>
<path fill-rule="evenodd" clip-rule="evenodd" d="M144.565 427.953C238.457 371.78 228.326 349.646 304.506 354.802C392.232 356.864 428.698 226.822 362.63 168.105C296.562 109.388 274.255 138.284 252.578 62.5114C229.791 -17.399 85.6804 -7.69072 71.2131 76.8844C58.0011 159.186 -9.56929 115.233 -15.3098 182.386C-19.9593 236.858 31.4061 258.774 25.2812 308.534C13.75 387.083 62.3053 476.884 144.565 427.953Z" stroke="white" stroke-width="3"/>
<path fill-rule="evenodd" clip-rule="evenodd" d="M150.901 399.992C231.09 351.697 226.881 333.209 290.371 336.652C367.331 336.485 397.478 225.792 341.701 173.961C285.924 122.129 265.228 148.264 246.002 80.6169C225.483 8.1421 101.299 20.1936 87.1422 92.5302C74.4502 162.215 18.4096 124.89 13.172 186.109C9.20741 232.535 52.7755 253.616 46.7996 297.848C36.3996 365.518 82.0468 441.152 150.901 399.992Z" stroke="white" stroke-width="3"/>
<path fill-rule="evenodd" clip-rule="evenodd" d="M157.288 372.011C223.773 331.594 225.486 316.753 276.286 318.482C342.479 316.086 366.309 224.743 320.823 179.797C275.336 134.851 256.251 158.224 239.478 98.7024C221.226 33.6634 116.968 48.0582 103.122 108.156C90.9499 165.223 46.4391 134.526 41.7045 189.813C38.4248 228.192 74.1956 248.437 68.3687 287.141C59.0999 343.933 101.839 405.401 157.288 372.011Z" stroke="white" stroke-width="3"/>
<path fill-rule="evenodd" clip-rule="evenodd" d="M163.756 343.998C216.536 311.458 224.172 300.264 262.281 300.28C317.709 295.655 335.221 223.662 300.025 185.601C264.829 147.54 247.355 168.152 233.034 116.756C217.049 59.1524 132.717 75.8904 119.182 123.75C107.53 168.2 74.5491 144.131 70.3176 193.484C67.7227 223.817 95.6962 243.227 90.0183 276.403C81.8808 322.315 121.712 369.617 163.756 343.998Z" stroke="white" stroke-width="3"/>
<path fill-rule="evenodd" clip-rule="evenodd" d="M170.339 315.961C209.416 291.299 222.973 283.752 248.392 282.054C293.054 275.201 304.249 222.557 279.343 191.381C254.438 160.205 238.575 178.056 226.706 134.786C212.988 84.6179 148.582 103.699 135.358 139.32C124.226 171.153 102.775 153.712 99.0465 197.132C97.1364 219.418 117.313 237.993 111.784 265.641C104.777 300.674 141.7 333.809 170.339 315.961Z" stroke="white" stroke-width="3"/>
</g>
<defs>
<clipPath id="clip0_0_277">
<rect width="716.663" height="699.921" fill="white" transform="translate(-170.554 -138.261)"/>
</clipPath>
</defs>
</svg>
