<svg width="368" height="687" viewBox="0 0 368 687" fill="none" xmlns="http://www.w3.org/2000/svg">
<g opacity="0.12" clip-path="url(#clip0_0_252)">
<path fill-rule="evenodd" clip-rule="evenodd" d="M207.751 697.001C396.505 630.728 360.897 579.824 504.403 623.335C647.91 666.846 765.729 444.258 661.707 324.051C557.685 203.844 518.396 241.524 506.859 114.981C495.321 -11.5617 242.704 -65.3784 197.262 83.4224C151.819 232.223 36.1371 126.008 8.37599 223.123C-19.3851 320.238 69.8866 364.596 47.5288 442.987C2.84742 577.778 33.3848 758.223 207.751 697.001Z" stroke="white" stroke-width="3"/>
<path fill-rule="evenodd" clip-rule="evenodd" d="M327.37 414.755C354.917 403.398 374.375 403.316 387.252 402.434C421.542 400.085 432.498 369 423.022 342.901C413.547 316.802 397.008 328.623 394.572 293.069C391.61 249.84 344.824 262.06 328.01 282.104C314.192 298.576 306.691 286.315 296.534 321.741C292.676 335.197 301.235 354.579 291.9 374.827C281.706 396.939 310.83 421.574 327.37 414.755Z" stroke="white" stroke-width="3"/>
<path fill-rule="evenodd" clip-rule="evenodd" d="M217.763 671.412C391.862 610.131 361.261 563.848 492.891 603.323C626.469 642.665 734.574 437.486 639.147 325.835C543.72 214.183 506.499 249.512 495.789 131.241C485.031 12.272 251.126 -35.5414 208.286 101.554C165.719 238.325 59.8711 140.651 33.7103 232.158C8.12218 321.668 90.0564 363.755 68.8825 436.86C27.3363 561.408 57.7452 727.688 217.763 671.412Z" stroke="white" stroke-width="3"/>
<path fill-rule="evenodd" clip-rule="evenodd" d="M227.773 645.808C387.216 589.519 361.621 547.856 481.376 583.296C605.025 618.468 703.415 430.699 616.583 327.603C529.752 224.506 494.598 257.485 484.716 147.485C474.738 36.0902 259.544 -5.71988 219.307 119.671C179.615 244.412 83.6018 155.279 59.0414 241.178C35.6263 323.082 110.223 362.899 90.233 430.718C51.822 545.023 82.1024 697.138 227.773 645.808Z" stroke="white" stroke-width="3"/>
<path fill-rule="evenodd" clip-rule="evenodd" d="M237.794 620.215C382.583 568.919 361.993 531.876 469.873 563.279C583.593 594.283 672.268 423.923 594.032 329.382C515.795 234.841 482.71 265.468 473.655 163.741C464.457 59.9197 267.975 24.113 230.34 137.798C193.523 250.509 107.345 169.918 84.3847 250.209C63.1425 324.508 130.402 362.054 111.596 424.588C76.3199 528.649 106.472 666.599 237.794 620.215Z" stroke="white" stroke-width="3"/>
<path fill-rule="evenodd" clip-rule="evenodd" d="M247.801 594.614C377.934 548.31 362.351 515.887 458.356 543.255C562.147 570.09 641.107 417.139 571.466 331.153C501.824 245.168 470.807 273.444 462.58 179.988C454.161 83.7413 276.391 53.938 241.359 155.918C207.417 256.599 131.073 184.549 109.713 259.232C90.6443 325.925 150.566 361.201 132.944 418.449C100.803 512.266 130.827 636.053 247.801 594.614Z" stroke="white" stroke-width="3"/>
<path fill-rule="evenodd" clip-rule="evenodd" d="M258.409 568.98C373.887 527.669 363.31 499.866 447.439 523.198C541.301 545.863 610.547 410.322 549.5 332.892C488.454 255.461 459.505 281.387 452.105 196.203C444.466 107.53 285.408 83.7297 252.979 174.005C221.911 262.656 155.402 199.147 135.643 268.222C118.747 327.31 171.331 360.315 154.893 412.277C125.887 495.851 155.782 605.473 258.409 568.98Z" stroke="white" stroke-width="3"/>
<path fill-rule="evenodd" clip-rule="evenodd" d="M269.715 543.29C370.538 506.971 364.966 483.788 437.22 503.084C521.154 521.581 580.684 403.449 528.233 334.574C475.782 265.698 448.902 289.274 442.329 212.361C435.469 131.262 295.123 113.465 265.296 192.035C237.104 268.656 180.43 213.689 162.271 277.155C147.547 328.638 192.794 359.373 177.54 406.05C151.67 479.379 181.436 574.837 269.715 543.29Z" stroke="white" stroke-width="3"/>
<path fill-rule="evenodd" clip-rule="evenodd" d="M281.068 517.607C367.236 486.281 366.67 467.718 427.048 482.979C501.053 497.306 550.869 396.584 507.013 336.264C463.157 275.944 438.345 297.168 432.599 228.527C426.519 155.002 304.885 143.209 277.661 210.074C252.343 274.665 205.504 228.239 188.945 286.097C176.395 329.975 214.304 358.439 200.234 399.83C177.499 462.916 207.137 544.209 281.068 517.607Z" stroke="white" stroke-width="3"/>
<path fill-rule="evenodd" clip-rule="evenodd" d="M292.473 491.913C363.986 465.579 368.426 451.636 416.929 462.861C481.005 473.019 521.106 389.706 485.845 337.942C450.584 286.177 427.84 305.05 422.922 244.681C417.622 178.73 314.699 172.94 290.078 228.1C267.635 280.661 230.63 242.776 215.672 295.026C205.295 331.299 235.866 357.492 222.98 393.597C203.38 446.44 232.89 513.568 292.473 491.913Z" stroke="white" stroke-width="3"/>
<path fill-rule="evenodd" clip-rule="evenodd" d="M303.964 466.203C360.822 444.862 370.268 435.539 406.896 442.728C461.043 448.717 491.429 382.814 464.763 339.604C438.098 296.395 417.422 312.918 413.331 260.82C408.81 202.443 324.6 202.656 302.581 246.111C283.014 286.642 255.843 257.299 242.485 303.941C234.281 332.608 257.515 356.531 245.812 387.35C229.348 429.949 258.729 482.913 303.964 466.203Z" stroke="white" stroke-width="3"/>
<path fill-rule="evenodd" clip-rule="evenodd" d="M315.57 440.496C357.772 424.147 372.225 419.445 396.977 422.599C441.195 424.418 461.866 375.924 443.796 341.27C425.725 306.616 407.117 320.788 403.854 276.962C400.113 226.159 334.614 232.376 315.198 264.125C298.506 292.626 281.17 271.824 269.412 312.858C263.381 333.92 279.278 355.572 268.759 381.106C255.43 413.461 284.682 452.261 315.57 440.496Z" stroke="white" stroke-width="3"/>
</g>
<defs>
<clipPath id="clip0_0_252">
<rect width="701.94" height="685.542" fill="white" transform="translate(0.987427 0.790771)"/>
</clipPath>
</defs>
</svg>
