<svg width="742" height="758" viewBox="0 0 742 758" fill="none" xmlns="http://www.w3.org/2000/svg">
<g opacity="0.12" clip-path="url(#clip0_0_300)">
<path fill-rule="evenodd" clip-rule="evenodd" d="M11.3079 54.5639C84.57 320.043 157.833 275.928 84.5708 468.931C11.3083 661.935 305.934 844.698 480.819 713.14C655.705 581.583 607.65 524.075 782.536 520.136C957.421 516.198 1055.1 174.305 855.011 97.8916C654.917 21.4779 811.683 -127.411 680.913 -174.677C550.143 -221.943 480.82 -103.508 375.258 -141.591C194.334 -215.641 -56.3698 -190.678 11.3079 54.5639Z" stroke="white" stroke-width="3"/>
<path fill-rule="evenodd" clip-rule="evenodd" d="M387.702 245.419C400.708 284.323 398.99 311.055 398.99 328.824C398.99 376.14 440.652 394.112 477.389 383.554C514.126 372.996 499.447 349.168 548.508 349.168C608.159 349.168 595.778 283.759 569.831 258.78C548.508 238.253 566.053 229.104 518.353 211.82C500.235 205.255 472.81 215.187 445.879 200.461C416.469 184.379 379.894 222.061 387.702 245.419Z" stroke="white" stroke-width="3"/>
<path fill-rule="evenodd" clip-rule="evenodd" d="M45.5172 70.7231C113.302 315.604 179.748 277.93 113.146 455.003C46.5437 634.762 318.173 802.544 480.499 681.987C642.826 561.429 597.806 506.983 761.252 503.403C925.661 499.822 1013.34 183.064 829.077 111.327C645.235 39.9934 789.345 -96.1918 666.127 -140.732C545.598 -184.298 480.083 -75.7266 381.67 -111.686C214.519 -180.467 -16.7178 -154.348 45.5172 70.7231Z" stroke="white" stroke-width="3"/>
<path fill-rule="evenodd" clip-rule="evenodd" d="M79.7366 86.8827C142.043 311.166 201.673 279.932 141.731 441.075C81.7892 607.59 330.422 760.391 480.189 650.833C629.956 541.276 587.971 489.892 739.978 486.669C893.912 483.446 971.584 191.824 803.153 124.762C635.563 58.5093 767.017 -64.9722 651.35 -106.787C541.062 -146.653 479.357 -47.9453 388.092 -81.7818C234.715 -145.292 22.9442 -118.017 79.7366 86.8827Z" stroke="white" stroke-width="3"/>
<path fill-rule="evenodd" clip-rule="evenodd" d="M113.941 103.048C170.77 306.734 223.584 281.941 170.302 427.153C117.02 580.424 342.656 718.244 479.864 619.686C617.073 521.128 578.121 472.806 718.69 469.942C862.148 467.077 929.814 200.589 777.215 138.203C625.877 77.0312 744.674 -33.7466 636.559 -72.8358C536.512 -109.002 478.615 -20.1579 394.499 -51.8711C254.896 -110.112 62.5915 -81.6801 113.941 103.048Z" stroke="white" stroke-width="3"/>
<path fill-rule="evenodd" clip-rule="evenodd" d="M148.161 119.205C199.512 302.293 245.509 283.941 198.888 413.223C152.266 553.249 354.905 676.088 479.555 588.53C604.204 500.972 568.286 455.712 697.417 453.205C830.399 450.699 888.059 209.346 751.291 151.636C616.205 95.5446 722.346 -2.52961 621.783 -38.8931C531.977 -71.359 477.89 7.62086 400.921 -21.9689C275.092 -74.9398 102.254 -45.3518 148.161 119.205Z" stroke="white" stroke-width="3"/>
<path fill-rule="evenodd" clip-rule="evenodd" d="M182.371 136.191C228.244 298.681 267.425 286.769 227.464 400.121C187.502 526.903 367.145 634.761 479.236 558.203C591.326 481.645 558.442 439.446 676.135 437.298C798.641 435.149 846.295 218.932 725.359 165.897C606.524 114.886 700.008 29.5159 606.998 -4.12189C527.433 -32.8877 477.154 36.2282 407.334 8.76179C295.279 -38.9392 141.907 -8.19489 182.371 136.191Z" stroke="white" stroke-width="3"/>
<path fill-rule="evenodd" clip-rule="evenodd" d="M216.587 154.135C256.982 296.027 289.347 290.556 256.046 387.977C222.744 501.515 379.39 594.392 478.922 528.834C578.454 463.276 548.604 424.139 654.857 422.349C766.888 420.558 804.536 229.475 699.431 181.117C596.849 135.187 677.677 62.5196 592.218 31.6075C522.894 6.54181 476.424 65.7937 413.752 40.4506C315.472 -1.98047 181.565 29.9202 216.587 154.135Z" stroke="white" stroke-width="3"/>
<path fill-rule="evenodd" clip-rule="evenodd" d="M250.804 172.138C285.721 293.432 311.269 294.402 284.628 375.893C257.987 476.186 391.636 554.082 478.609 499.524C565.582 444.966 538.766 408.891 633.581 407.459C735.136 406.026 762.778 240.078 673.505 196.396C587.174 155.546 655.346 95.5828 577.439 67.3963C518.356 46.0307 475.695 95.4186 420.171 72.1989C335.665 35.0377 221.225 68.0947 250.804 172.138Z" stroke="white" stroke-width="3"/>
<path fill-rule="evenodd" clip-rule="evenodd" d="M285.012 190.228C314.451 290.925 333.183 298.336 313.202 363.896C293.221 450.945 403.874 513.86 478.288 470.302C552.702 426.744 528.92 393.73 612.296 392.656C703.375 391.582 721.012 250.768 647.57 211.762C577.491 175.993 633.006 128.733 562.651 103.272C513.809 85.6069 474.957 125.131 426.581 104.034C355.849 72.1432 260.876 106.356 285.012 190.228Z" stroke="white" stroke-width="3"/>
<path fill-rule="evenodd" clip-rule="evenodd" d="M319.243 208.418C343.204 288.517 355.119 302.369 341.799 351.998C328.478 425.803 416.134 473.737 477.989 441.179C539.844 408.621 519.096 378.669 591.034 377.953C671.637 377.237 679.268 261.558 621.657 227.228C567.831 196.539 610.689 161.983 547.886 139.248C509.285 125.283 474.242 154.943 433.014 135.97C376.056 109.348 300.549 144.718 319.243 208.418Z" stroke="white" stroke-width="3"/>
<path fill-rule="evenodd" clip-rule="evenodd" d="M353.463 226.787C371.947 286.288 377.045 306.58 370.385 340.279C363.725 400.839 428.384 433.792 477.68 412.234C526.976 390.676 509.262 363.786 569.761 363.428C639.889 363.07 637.513 272.527 595.735 242.872C558.16 217.264 588.362 195.412 533.11 175.402C504.75 165.137 473.517 184.933 439.437 168.083C396.253 146.732 340.212 183.257 353.463 226.787Z" stroke="white" stroke-width="3"/>
</g>
<defs>
<clipPath id="clip0_0_300">
<rect width="966.336" height="943.761" fill="white" transform="translate(0 -186)"/>
</clipPath>
</defs>
</svg>
