<svg width="16" height="14" viewBox="0 0 16 14" fill="none" xmlns="http://www.w3.org/2000/svg">
<path fill-rule="evenodd" clip-rule="evenodd" d="M14.1148 2.38789C14.7926 1.98152 15.3131 1.33836 15.5579 0.572014C14.9243 0.948522 14.2209 1.22104 13.4738 1.36876C12.8749 0.730938 12.0211 0.332031 11.0777 0.332031C9.26498 0.332031 7.79521 1.8018 7.79521 3.61448C7.79521 3.87153 7.82455 4.12218 7.88054 4.36269C5.15219 4.22617 2.73368 2.91906 1.11459 0.933057C0.831945 1.41782 0.670355 1.98153 0.670355 2.58309C0.670355 3.72168 1.24898 4.72641 2.13052 5.31517C1.59189 5.2981 1.08633 5.15038 0.643156 4.90453V4.94559C0.643156 6.53642 1.77535 7.86273 3.27605 8.16511C3.00087 8.23977 2.71075 8.2803 2.41157 8.2803C2.19985 8.2803 1.994 8.2595 1.79348 8.2211C2.21105 9.52502 3.42377 10.4743 4.85994 10.501C3.73682 11.3809 2.32144 11.9062 0.783413 11.9062C0.517831 11.9062 0.256516 11.8907 0 11.8598C1.4527 12.7909 3.17792 13.3349 5.03166 13.3349C11.0691 13.3349 14.3708 8.33309 14.3708 3.99578C14.3708 3.85339 14.3681 3.71154 14.3612 3.57128C15.0033 3.10732 15.56 2.52922 16 1.87113C15.4118 2.13244 14.7787 2.30843 14.1148 2.38789Z" fill="white"/>
</svg>
