<svg width="15" height="14" viewBox="0 0 15 14" fill="none" xmlns="http://www.w3.org/2000/svg">
<path fill-rule="evenodd" clip-rule="evenodd" d="M1.8948 3.0244C0.944934 3.0244 0.312913 2.35265 0.332473 1.52259C0.312913 0.652189 0.944919 0 1.91373 0C2.88316 0 3.49625 0.652189 3.5152 1.52259C3.5152 2.35265 2.88317 3.0244 1.8948 3.0244ZM0.411937 4.21081H3.41678V13.8788H0.411937V13.8794V4.21081Z" fill="white"/>
<path fill-rule="evenodd" clip-rule="evenodd" d="M5.74561 4.2121H8.35559L8.49434 5.53666H8.55364C8.94911 4.92359 9.93748 3.99512 11.5389 3.99512C13.5157 3.99512 14.9985 5.30011 14.9985 8.14603V13.8807H11.9937V8.52255C11.9937 7.27624 11.5591 6.42662 10.4717 6.42662C9.64103 6.42662 9.14716 6.99996 8.94972 7.55313C8.87026 7.75117 8.83114 8.02745 8.83114 8.30495V13.8807H5.82628V7.29641H5.82507C5.82507 6.09044 5.78534 5.06234 5.74561 4.2121Z" fill="white"/>
</svg>
