<svg width="48" height="48" viewBox="0 0 48 48" fill="none" xmlns="http://www.w3.org/2000/svg">
<mask id="mask0_0_213" style="mask-type:alpha" maskUnits="userSpaceOnUse" x="0" y="0" width="48" height="48">
<rect width="48" height="48" fill="white"/>
</mask>
<g mask="url(#mask0_0_213)">
<mask id="mask1_0_213" style="mask-type:alpha" maskUnits="userSpaceOnUse" x="7" y="6" width="36" height="33">
<rect x="7" y="6" width="36" height="33" fill="white"/>
</mask>
<g mask="url(#mask1_0_213)">
<path d="M16.1804 34.8423C16.1804 32.5496 18.0184 30.6847 20.2781 30.6847V31.9552C18.7072 31.9552 17.4326 33.2518 17.4326 34.8423C17.4326 36.4362 18.7105 37.7328 20.2781 37.7328C21.8489 37.7328 23.1268 36.4362 23.1268 34.8423V10.1577C23.1268 8.56384 21.8489 7.27049 20.2781 7.27049C18.7072 7.27049 17.4326 8.5671 17.4326 10.1577C17.4326 11.7515 18.7105 13.0448 20.2781 13.0448V14.3153C18.0184 14.3153 16.1804 12.4504 16.1804 10.1577C16.1804 7.8649 18.0184 6 20.2781 6C22.5377 6 24.3757 7.8649 24.3757 10.1577V34.8391C24.3757 37.1318 22.5377 39 20.2781 39C18.0184 39 16.1804 37.1351 16.1804 34.8423Z" fill="white"/>
<path d="M14.4417 17.225H15.6938C15.6938 18.8188 16.9717 20.1121 18.5393 20.1121V21.3826C16.2796 21.3826 14.4417 19.5177 14.4417 17.225Z" fill="white"/>
<path d="M14.4417 27.7714C14.4417 25.4787 16.2796 23.6138 18.5393 23.6138V24.8843C16.9685 24.8843 15.6938 26.1776 15.6938 27.7714H14.4417Z" fill="white"/>
<path d="M23.1233 29.544C23.1233 27.9502 21.8454 26.6568 20.2778 26.6568V25.3864C22.5375 25.3864 24.3755 27.2513 24.3755 29.544H23.1233Z" fill="white"/>
<path d="M20.2778 18.3386C21.8486 18.3386 23.1265 17.042 23.1265 15.4514H24.3787C24.3755 17.7442 22.5375 19.6091 20.2778 19.6091V18.3386Z" fill="white"/>
<path d="M11.4458 12.7414C11.4458 10.4486 13.2838 8.58374 15.5434 8.58374C16.0842 8.58374 16.6089 8.68825 17.1078 8.89728L16.6282 10.0698C16.2838 9.92608 15.9201 9.85096 15.5434 9.85096C13.9726 9.85096 12.6947 11.1476 12.6947 12.7414C12.6947 12.957 12.7173 13.1725 12.7655 13.3783L11.5488 13.6624C11.4812 13.3619 11.4458 13.0517 11.4458 12.7414Z" fill="white"/>
<path d="M9.40397 14.0997C10.1765 13.3159 11.2065 12.8815 12.301 12.8815C13.3954 12.8815 14.4254 13.3126 15.198 14.0997L14.3128 14.9979C13.7752 14.4524 13.0606 14.152 12.301 14.152C11.5413 14.152 10.8267 14.4524 10.2892 14.9979C9.17865 16.1246 9.17865 17.9569 10.2892 19.0837L9.40397 19.9786C7.8074 18.3586 7.8074 15.7197 9.40397 14.0997Z" fill="white"/>
<path d="M7 22.5006C7 20.2078 8.83798 18.3429 11.0976 18.3429V19.6134C9.52682 19.6134 8.25215 20.91 8.25215 22.5006C8.25215 24.0944 9.53004 25.3877 11.0976 25.3877V26.6582C8.83798 26.6582 7 24.7933 7 22.5006Z" fill="white"/>
<path d="M9.40523 30.901C8.62948 30.1171 8.20459 29.072 8.20459 27.9615C8.20459 26.8511 8.62948 25.8059 9.40523 25.0221L10.2904 25.9203C9.75287 26.4657 9.45674 27.1907 9.45674 27.9615C9.45674 28.7323 9.75287 29.4574 10.2904 30.0028C10.828 30.5482 11.5426 30.8487 12.3022 30.8487C13.0619 30.8487 13.7765 30.5482 14.314 30.0028L15.1992 30.901C14.4267 31.6881 13.3967 32.1192 12.3022 32.1192C11.2078 32.1192 10.1778 31.6848 9.40523 30.901Z" fill="white"/>
<path d="M11.4485 32.2583C11.4485 31.9447 11.4839 31.6345 11.5515 31.334L12.7714 31.6181C12.7232 31.8272 12.7006 32.0394 12.7006 32.2583C12.7006 33.8521 13.9785 35.1454 15.5493 35.1454C15.926 35.1454 16.2897 35.0703 16.6341 34.9266L17.1137 36.0991C16.6116 36.3114 16.0869 36.4159 15.5461 36.4159C13.2865 36.4159 11.4485 34.551 11.4485 32.2583Z" fill="white"/>
<path d="M25.625 34.8423V10.1577C25.625 7.8649 27.463 6 29.7226 6C31.9823 6 33.8203 7.8649 33.8203 10.1577C33.8203 12.4504 31.9823 14.3153 29.7226 14.3153V13.0448C31.2935 13.0448 32.5681 11.7482 32.5681 10.1577C32.5681 8.56384 31.2902 7.27049 29.7226 7.27049C28.1518 7.27049 26.8739 8.5671 26.8739 10.1577V34.8391C26.8739 36.4329 28.1518 37.7295 29.7226 37.7295C31.2935 37.7295 32.5681 36.4329 32.5681 34.8391C32.5681 33.2453 31.2902 31.9519 29.7226 31.9519V30.6814C31.9823 30.6814 33.8203 32.5463 33.8203 34.8391C33.8235 37.1318 31.9823 39 29.7226 39C27.463 39 25.625 37.1351 25.625 34.8423Z" fill="white"/>
<path d="M31.4612 20.1121C33.032 20.1121 34.3067 18.8155 34.3067 17.225H35.5588C35.5588 19.5177 33.7208 21.3826 31.4612 21.3826V20.1121Z" fill="white"/>
<path d="M34.3067 27.7714C34.3067 26.1776 33.0288 24.8843 31.4612 24.8843V23.6138C33.7208 23.6138 35.5588 25.4787 35.5588 27.7714H34.3067Z" fill="white"/>
<path d="M25.625 29.544C25.625 27.2513 27.463 25.3864 29.7226 25.3864V26.6568C28.155 26.6568 26.8771 27.9535 26.8771 29.544H25.625Z" fill="white"/>
<path d="M25.625 15.4514H26.8771C26.8771 17.0452 28.155 18.3386 29.7259 18.3386V19.6091H29.7226C27.463 19.6091 25.625 17.7442 25.625 15.4514Z" fill="white"/>
<path d="M37.2317 13.3783C37.28 13.1725 37.3025 12.957 37.3025 12.7414C37.3025 11.1476 36.0246 9.85096 34.4538 9.85096C34.0772 9.85096 33.7134 9.92281 33.369 10.0698L32.8894 8.89728C33.3851 8.68825 33.913 8.58374 34.4538 8.58374C36.7134 8.58374 38.5514 10.4486 38.5514 12.7414C38.5546 13.0484 38.5192 13.3619 38.4516 13.6624L37.2317 13.3783Z" fill="white"/>
<path d="M39.7106 19.0804C40.8211 17.9536 40.8211 16.1214 39.7106 14.9946C38.6001 13.8678 36.7943 13.8678 35.6838 14.9946L34.7986 14.0964C36.3952 12.4765 38.996 12.4765 40.5926 14.0964C42.1956 15.7197 42.1956 18.3586 40.5958 19.9786L39.7106 19.0804Z" fill="white"/>
<path d="M38.9028 25.3877C40.4736 25.3877 41.7483 24.0911 41.7483 22.5006C41.7483 20.9067 40.4704 19.6134 38.9028 19.6134V18.3429C41.1625 18.3429 43.0005 20.2078 43.0005 22.5006C43.0005 24.7933 41.1625 26.6582 38.9028 26.6582V25.3877Z" fill="white"/>
<path d="M34.8018 30.9006L35.687 30.0024C36.7975 31.1292 38.6033 31.1292 39.7138 30.0024C40.8243 28.8756 40.8243 27.0434 39.7138 25.9166L40.599 25.0184C42.1955 26.6384 42.1955 29.2773 40.599 30.8973C39.7975 31.7105 38.7481 32.1155 37.6988 32.1155C36.6494 32.1155 35.6 31.7105 34.8018 30.9006Z" fill="white"/>
<path d="M32.8894 36.1039L33.369 34.9314C33.7134 35.0751 34.0772 35.1502 34.4538 35.1502C36.0246 35.1502 37.3025 33.8536 37.3025 32.263C37.3025 32.0475 37.28 31.8319 37.2317 31.6229L38.4516 31.3387C38.5192 31.6392 38.5546 31.9495 38.5546 32.263C38.5546 34.5525 36.7167 36.4174 34.4538 36.4174C33.913 36.4174 33.3883 36.3129 32.8894 36.1039Z" fill="white"/>
</g>
</g>
</svg>
