<svg width="48" height="48" viewBox="0 0 48 48" fill="none" xmlns="http://www.w3.org/2000/svg">
<mask id="mask0_0_168" style="mask-type:alpha" maskUnits="userSpaceOnUse" x="0" y="0" width="48" height="48">
<rect width="48" height="48" fill="white"/>
</mask>
<g mask="url(#mask0_0_168)">
<mask id="mask1_0_168" style="mask-type:alpha" maskUnits="userSpaceOnUse" x="8" y="6" width="31" height="36">
<rect x="8" y="6" width="31" height="36" fill="white"/>
</mask>
<g mask="url(#mask1_0_168)">
<path fill-rule="evenodd" clip-rule="evenodd" d="M38.1529 31.7907L38.6894 32.0984L38.0706 33.1772L37.5341 32.8695L38.1529 31.7907Z" fill="white"/>
<path fill-rule="evenodd" clip-rule="evenodd" d="M35.4092 31.6364L36.0267 30.5574L37.09 31.1753L36.4724 32.2543L35.4092 31.6364ZM33.2858 30.4005L33.9034 29.3215L34.9667 29.9395L34.3491 31.0184L33.2858 30.4005ZM31.1625 29.1678L31.7801 28.0921L32.8433 28.71L32.2258 29.7858L31.1625 29.1678ZM29.036 27.932L29.6536 26.8562L30.7168 27.4741L30.0992 28.5499L29.036 27.932ZM26.9126 26.6993L27.5302 25.6236L28.5935 26.2415L27.9759 27.3173L26.9126 26.6993ZM24.7861 25.4667L25.4037 24.3877L26.467 25.0056L25.8494 26.0846L24.7861 25.4667Z" fill="white"/>
<path d="M23.5006 24.7168L23.2746 24.8481L22.657 23.7723L23.5006 23.2825L24.3442 23.7723L23.7266 24.8481L23.5006 24.7168Z" fill="white"/>
<path fill-rule="evenodd" clip-rule="evenodd" d="M9.91016 31.1753L10.9734 30.5574L11.591 31.6364L10.5277 32.2511L9.91016 31.1753ZM12.0335 29.9395L13.0936 29.3247L13.7111 30.4037L12.6511 31.0184L12.0335 29.9395ZM14.1568 28.7068L15.2201 28.0921L15.8377 29.171L14.7744 29.7858L14.1568 28.7068ZM16.2833 27.4709L17.3466 26.853L17.9642 27.932L16.9009 28.5499L16.2833 27.4709ZM18.4067 26.2383L19.4699 25.6204L20.0875 26.6993L19.0242 27.3173L18.4067 26.2383ZM20.53 25.0056L21.5933 24.3877L22.2108 25.4667L21.1476 26.0846L20.53 25.0056Z" fill="white"/>
<path fill-rule="evenodd" clip-rule="evenodd" d="M8.84196 31.7934L9.46659 32.8688L8.93178 33.1794L8.30715 32.104L8.84196 31.7934Z" fill="white"/>
<path fill-rule="evenodd" clip-rule="evenodd" d="M24.1204 23.3806V24.0017H22.8821V23.3806H24.1204Z" fill="white"/>
<path fill-rule="evenodd" clip-rule="evenodd" d="M22.8801 22.1437V20.911H24.1185V22.1437H22.8801ZM22.8801 19.6784V18.4457H24.1185V19.6784H22.8801ZM22.8801 17.2098V15.9772H24.1185V17.2098H22.8801ZM22.8801 14.7413V13.5087H24.1185V14.7413H22.8801ZM22.8801 12.276V11.0433H24.1185V12.276H22.8801ZM22.8801 9.80749V8.57483H24.1185V9.80749H22.8801Z" fill="white"/>
<path fill-rule="evenodd" clip-rule="evenodd" d="M24.1204 6.71826V7.33939H22.8821V6.71826H24.1204Z" fill="white"/>
<path fill-rule="evenodd" clip-rule="evenodd" d="M8 33V15L23.5 6L39 15V33L23.5 42L8 33ZM23.5 40.5656L37.7617 32.2828V15.7204L23.5 7.43757L9.23834 15.7172V32.2828L23.5 40.5656Z" fill="white"/>
<path d="M8.30981 15.896L8.9274 14.8202L23.501 23.2823L38.0715 14.8202L38.6922 15.8992L23.501 24.7167L8.30981 15.896Z" fill="white"/>
<path fill-rule="evenodd" clip-rule="evenodd" d="M24.1209 24.0009V41.2837H22.8826V24.0009H24.1209Z" fill="white"/>
</g>
</g>
</svg>
