<svg width="48" height="48" viewBox="0 0 48 48" fill="none" xmlns="http://www.w3.org/2000/svg">
<mask id="mask0_0_112" style="mask-type:alpha" maskUnits="userSpaceOnUse" x="0" y="0" width="48" height="48">
<rect width="48" height="48" fill="white"/>
</mask>
<g mask="url(#mask0_0_112)">
<mask id="mask1_0_112" style="mask-type:alpha" maskUnits="userSpaceOnUse" x="7" y="6" width="33" height="36">
<rect x="7" y="6" width="33" height="36" fill="white"/>
</mask>
<g mask="url(#mask1_0_112)">
<path fill-rule="evenodd" clip-rule="evenodd" d="M23.499 17.4684C19.7872 17.4684 16.7766 20.3937 16.7766 24.0003C16.7766 27.6068 19.7872 30.5321 23.499 30.5321C27.2138 30.5321 30.2214 27.6068 30.2214 24.0003C30.2214 20.3937 27.2108 17.4684 23.499 17.4684ZM17.9729 24.0003C17.9729 21.0391 20.4515 18.6307 23.499 18.6307C26.5465 18.6307 29.0251 21.0391 29.0251 24.0003C29.0282 26.9614 26.5496 29.3698 23.499 29.3698C20.4515 29.3698 17.9729 26.9614 17.9729 24.0003Z" fill="white"/>
<path d="M37.9108 25.8019C37.8585 26.1993 37.7878 26.5997 37.7017 26.9881L38.8702 27.2332C38.9656 26.8118 39.0424 26.3816 39.0978 25.9483L37.9108 25.8019Z" fill="white"/>
<path d="M39.2069 23.3448L38.0137 23.3956C38.0229 23.5958 38.026 23.796 38.026 23.9992C38.026 24.1994 38.0229 24.4026 38.0137 24.5998L39.2069 24.6506C39.2192 24.4325 39.2222 24.2174 39.2222 23.9962C39.2222 23.7781 39.2161 23.56 39.2069 23.3448Z" fill="white"/>
<path d="M37.7039 21.0093C37.79 21.4007 37.8607 21.7981 37.913 22.1956L39.1 22.0491C39.0416 21.6189 38.9647 21.1886 38.8724 20.7643L37.7039 21.0093Z" fill="white"/>
<path d="M28.3032 9.44885L27.9373 10.5544C28.3278 10.6769 28.7214 10.8174 29.0997 10.9728L29.561 9.90005C29.1489 9.73272 28.7276 9.58033 28.3032 9.44885Z" fill="white"/>
<path d="M33.0362 11.848L32.3135 12.7713C32.6425 13.0134 32.9654 13.2733 33.2668 13.5393L34.0694 12.6817C33.7404 12.3918 33.3929 12.111 33.0362 11.848Z" fill="white"/>
<path d="M31.9369 11.1062C31.7493 10.9897 31.5587 10.8791 31.3618 10.7686C31.1681 10.661 30.9713 10.5564 30.7745 10.4548L30.2209 11.4827C30.4024 11.5754 30.5838 11.674 30.7653 11.7726C30.9436 11.8742 31.1189 11.9787 31.2942 12.0863L31.9369 11.1062Z" fill="white"/>
<path d="M18.6948 9.44885C18.2735 9.58033 17.8491 9.73272 17.437 9.90005L17.8983 10.9698C18.2827 10.8174 18.6732 10.6769 19.0607 10.5544L18.6948 9.44885Z" fill="white"/>
<path d="M16.776 11.4857L16.2255 10.4548C16.0287 10.5564 15.8319 10.658 15.6381 10.7686C15.4444 10.8791 15.2537 10.9897 15.0662 11.1062L15.7058 12.0863C15.878 11.9787 16.0564 11.8742 16.2347 11.7756C16.4131 11.674 16.5945 11.5783 16.776 11.4857Z" fill="white"/>
<path d="M13.9625 11.8512C13.6088 12.1141 13.2613 12.392 12.9292 12.6849L13.7318 13.5454C14.0393 13.2765 14.3592 13.0165 14.6851 12.7745L13.9625 11.8512Z" fill="white"/>
<path d="M7.79125 24.652L8.98443 24.6042C8.97521 24.404 8.97213 24.2038 8.97213 24.0006C8.97213 23.8004 8.97521 23.5973 8.98443 23.4L7.79125 23.3492C7.78203 23.5644 7.77588 23.7825 7.77588 24.0006C7.77588 24.2188 7.78203 24.4369 7.79125 24.652Z" fill="white"/>
<path d="M9.08888 25.8042L7.90186 25.9506C7.95721 26.3809 8.03409 26.8112 8.12942 27.2355L9.298 26.9905C9.21189 26.599 9.14116 26.1986 9.08888 25.8042Z" fill="white"/>
<path d="M8.12942 20.7666C8.03716 21.1879 7.96028 21.6212 7.90186 22.0515L9.08581 22.1979C9.14116 21.7975 9.21189 21.4001 9.298 21.0116L8.12942 20.7666Z" fill="white"/>
<path d="M13.9656 36.1502L14.6883 35.2269C14.3593 34.9819 14.0364 34.7249 13.735 34.459L12.9324 35.3166C13.2614 35.6064 13.6089 35.8843 13.9656 36.1502Z" fill="white"/>
<path d="M15.0662 36.8934C15.2537 37.0099 15.4444 37.1205 15.6412 37.2311C15.835 37.3386 16.0318 37.4432 16.2286 37.5448L16.7821 36.5169C16.6007 36.4243 16.4193 36.3287 16.2378 36.2271C16.0564 36.1255 15.8811 36.0209 15.7058 35.9133L15.0662 36.8934Z" fill="white"/>
<path d="M18.6992 38.5515L19.0651 37.4459C18.6715 37.3234 18.2809 37.183 17.9027 37.0276L17.4414 38.1003C17.8504 38.2676 18.2748 38.42 18.6992 38.5515Z" fill="white"/>
<path d="M30.2253 36.5139L30.7789 37.5417C30.9757 37.4431 31.1725 37.3386 31.3662 37.228C31.56 37.1174 31.7506 37.0069 31.9382 36.8904L31.2986 35.9103C31.1233 36.0178 30.9449 36.1224 30.7666 36.224C30.5882 36.3256 30.4068 36.4212 30.2253 36.5139Z" fill="white"/>
<path d="M28.3032 38.5515C28.7245 38.42 29.1489 38.2676 29.561 38.0973L29.0997 37.0276C28.7184 37.183 28.3278 37.3234 27.9373 37.4459L28.3032 38.5515Z" fill="white"/>
<path d="M33.0386 36.1466C33.3922 35.8837 33.7397 35.6058 34.0688 35.3129L33.2662 34.4524C32.9617 34.7243 32.6419 34.9813 32.3159 35.2233L33.0386 36.1466Z" fill="white"/>
<path fill-rule="evenodd" clip-rule="evenodd" d="M24.0984 13.5199V16.6155H22.9021V13.5199H24.0984Z" fill="white"/>
<path fill-rule="evenodd" clip-rule="evenodd" d="M26.8965 9.30179C26.8996 7.48207 25.3743 6 23.4984 6C21.6256 6 20.1003 7.48207 20.1003 9.30179C20.1003 11.1245 21.6256 12.6036 23.4984 12.6036C25.3712 12.6036 26.8965 11.1215 26.8965 9.30179ZM25.7034 9.30478C25.7034 10.4851 24.7162 11.4472 23.4984 11.4472C22.2837 11.4472 21.2935 10.488 21.2935 9.30478C21.2966 8.12151 22.2837 7.16235 23.4984 7.16235C24.7131 7.16235 25.7034 8.12151 25.7034 9.30478Z" fill="white"/>
<path fill-rule="evenodd" clip-rule="evenodd" d="M14.4764 18.2222L17.1961 19.8383L16.598 20.8449L13.8783 19.2288L14.4764 18.2222Z" fill="white"/>
<path fill-rule="evenodd" clip-rule="evenodd" d="M10.3988 19.9536C11.6104 19.9536 12.739 19.3202 13.3448 18.3012C14.2828 16.7235 13.7231 14.7006 12.1025 13.7893C11.5858 13.4994 10.9985 13.347 10.405 13.347C9.19332 13.347 8.06472 13.9805 7.45891 14.9994C7.00378 15.7644 6.88385 16.6518 7.12064 17.5064C7.35435 18.358 7.91404 19.0692 8.70129 19.5114C9.21793 19.8012 9.80529 19.9536 10.3988 19.9536ZM10.4019 14.5064C10.7863 14.5064 11.1676 14.605 11.5028 14.7933C12.5545 15.3849 12.9174 16.6966 12.3085 17.7186C11.9149 18.3789 11.183 18.7913 10.3988 18.7913C10.0144 18.7913 9.63615 18.6927 9.30096 18.5044C8.79047 18.2176 8.4276 17.7574 8.27384 17.2046C8.12008 16.6518 8.19696 16.0751 8.49218 15.5791C8.8858 14.9188 9.6177 14.5064 10.4019 14.5064Z" fill="white"/>
<path fill-rule="evenodd" clip-rule="evenodd" d="M16.6334 27.1807L17.2064 28.2019L14.4475 29.7499L13.8745 28.7288L16.6334 27.1807Z" fill="white"/>
<path fill-rule="evenodd" clip-rule="evenodd" d="M10.3996 28.0459C9.80613 28.0459 9.21877 28.1983 8.70214 28.4881C7.07843 29.3995 6.52182 31.4224 7.45668 33.0001C8.06249 34.019 9.19109 34.6525 10.4027 34.6525C10.9962 34.6525 11.5836 34.5001 12.1002 34.2102C13.7239 33.2989 14.2806 31.273 13.3457 29.6983C12.7399 28.6794 11.6113 28.0459 10.3996 28.0459ZM10.4027 33.4901C9.61547 33.4901 8.88357 33.0808 8.49302 32.4204C7.88413 31.3985 8.24701 30.0867 9.29873 29.4951C9.63392 29.3069 10.0152 29.2082 10.3966 29.2082C11.1838 29.2082 11.9157 29.6176 12.3063 30.278C12.9182 31.2999 12.5554 32.6116 11.5036 33.2033C11.1684 33.3915 10.7871 33.4901 10.4027 33.4901Z" fill="white"/>
<path fill-rule="evenodd" clip-rule="evenodd" d="M24.0984 31.3843V34.4799H22.9021V31.3843H24.0984Z" fill="white"/>
<path fill-rule="evenodd" clip-rule="evenodd" d="M20.1003 38.6947C20.1003 40.5145 21.6256 41.9965 23.4984 41.9965C24.4056 41.9965 25.2605 41.6529 25.9002 41.0284C26.5429 40.4039 26.8965 39.5762 26.8965 38.6917C26.8965 36.875 25.3743 35.3959 23.4984 35.3929C21.6256 35.3929 20.1003 36.875 20.1003 38.6947ZM23.5015 40.8372C22.2868 40.8372 21.2966 39.878 21.2966 38.6947C21.2966 37.5145 22.2837 36.5523 23.4984 36.5523C24.7131 36.5523 25.7034 37.5145 25.7034 38.6947C25.7034 39.2684 25.4727 39.8063 25.0576 40.2097C24.6424 40.6131 24.0889 40.8372 23.5015 40.8372Z" fill="white"/>
<path fill-rule="evenodd" clip-rule="evenodd" d="M30.4 27.1531L33.1197 28.7692L32.5216 29.7758L29.8019 28.1597L30.4 27.1531Z" fill="white"/>
<path fill-rule="evenodd" clip-rule="evenodd" d="M36.6024 28.0459C35.3908 28.0459 34.2622 28.6794 33.6564 29.6983C32.7215 31.276 33.2781 33.2989 34.9018 34.2102C35.4185 34.5001 36.0058 34.6525 36.5994 34.6525C37.811 34.6525 38.9396 34.019 39.5454 33.0001C40.0005 32.2351 40.1205 31.3447 39.8837 30.4931C39.6469 29.6415 39.0841 28.9304 38.2999 28.4881C37.7833 28.1983 37.1959 28.0459 36.6024 28.0459ZM36.5963 33.4901C36.2119 33.4901 35.8306 33.3915 35.4954 33.2033C34.4436 32.6146 34.0808 31.2999 34.6897 30.278C35.0833 29.6176 35.8152 29.2053 36.6024 29.2053C36.9868 29.2053 37.3651 29.3039 37.7003 29.4921C38.2108 29.779 38.5736 30.2391 38.7274 30.7919C38.8812 31.3477 38.8012 31.9244 38.5091 32.4204C38.1154 33.0808 37.3835 33.4901 36.5963 33.4901Z" fill="white"/>
<path fill-rule="evenodd" clip-rule="evenodd" d="M32.5548 18.2507L33.1278 19.2718L30.3689 20.8199L29.7959 19.7987L32.5548 18.2507Z" fill="white"/>
<path fill-rule="evenodd" clip-rule="evenodd" d="M36.6032 19.9536C37.1967 19.9536 37.7841 19.8012 38.3007 19.5114C39.0879 19.0692 39.6507 18.358 39.8844 17.5064C40.1181 16.6548 39.9982 15.7644 39.5431 14.9994C38.9373 13.9805 37.8087 13.347 36.597 13.347C36.0035 13.347 35.4161 13.4994 34.8995 13.7893C33.2789 14.7006 32.7192 16.7235 33.6571 18.3012C34.2629 19.3202 35.3915 19.9536 36.6032 19.9536ZM36.597 14.5094C37.3843 14.5094 38.1162 14.9188 38.5067 15.5821C38.8019 16.0781 38.8788 16.6548 38.7281 17.2076C38.5744 17.7604 38.2115 18.2206 37.701 18.5074C37.3658 18.6957 36.9845 18.7943 36.6032 18.7943C35.8159 18.7943 35.084 18.3849 34.6935 17.7245C34.0846 16.6996 34.4475 15.3879 35.4992 14.7962C35.8344 14.608 36.2157 14.5094 36.597 14.5094Z" fill="white"/>
</g>
</g>
</svg>
