<svg width="138" height="26" viewBox="0 0 138 26" fill="none" xmlns="http://www.w3.org/2000/svg">
<path d="M119.743 1.29706V7.59955H136.391L128.809 0.399019L120.642 0.398438C120.145 0.398438 119.743 0.80085 119.743 1.29706Z" fill="white"/>
<path d="M136.102 8.60938H129.801V25.2581L136.998 17.6732L137.001 9.50742C137.001 9.01005 136.602 8.60938 136.102 8.60938Z" fill="white"/>
<path d="M128.789 24.9596V18.6594H112.14L119.723 25.8588L127.891 25.8599C128.386 25.8599 128.789 25.457 128.789 24.9596Z" fill="white"/>
<path d="M112.432 17.6543H118.732V1.00439L111.533 8.58707L111.532 16.7528C111.532 17.2496 111.934 17.6543 112.432 17.6543Z" fill="white"/>
<path d="M35.2223 11.1296H24.5107V3.44097L20.6094 3.4375V22.8238H24.5107V14.4954H35.2223V22.8238H39.1301V3.44097H35.2223V11.1296Z" fill="white"/>
<path d="M87.125 22.8157H104.241L102.073 19.4042H91.0374V14.4919H101.724V11.206H91.0374V6.7691H102.055L104.178 3.4375H87.125V22.8157Z" fill="white"/>
<path d="M0 9.49059V16.727C0 20.8814 2.64143 22.8211 6.08769 22.8211L18.3279 22.8199L16.0588 19.2764H6.84387C4.88624 19.2764 4.03337 18.5688 4.03337 16.3779V9.81252C4.03337 7.69451 4.75134 6.86827 6.89598 6.86827H16.1549L18.3337 3.43359H6.10796C2.04971 3.43359 0 5.90074 0 9.49059Z" fill="white"/>
<path d="M65.2556 8.46257V9.3936C65.2556 13.171 67.567 14.6122 69.8795 14.622H77.9966C78.8397 14.622 79.5246 14.7622 79.5246 16.1871L79.5235 17.8332C79.502 19.1134 78.8634 19.4064 77.9677 19.4064H67.2891L65.1016 22.8179H78.219C81.3821 22.8179 83.5296 21.2441 83.5296 17.6091V16.2734C83.5296 12.7588 81.5344 11.0982 78.4407 11.0982H70.6901C69.8309 11.0982 69.2322 10.8637 69.2322 9.59104V8.25064C69.2322 7.16674 69.6427 6.77128 70.6438 6.77128L80.8135 6.76723L82.939 3.42578L70.0017 3.43041C67.6579 3.43041 65.2556 4.83914 65.2556 8.46257Z" fill="white"/>
<path fill-rule="evenodd" clip-rule="evenodd" d="M41.2734 22.8231H45.6177L47.408 18.8204H57.3965L59.181 22.8231H63.5444L54.3312 3.44141H50.4652L41.2734 22.8231ZM55.9246 15.5212H48.8833L52.3927 7.4655L55.9246 15.5212Z" fill="white"/>
</svg>
