<svg width="99" height="33" viewBox="0 0 99 33" fill="none" xmlns="http://www.w3.org/2000/svg">
<path fill-rule="evenodd" clip-rule="evenodd" d="M33.8521 25.0366C29.3962 25.0366 25.7654 21.6166 25.7654 16.9753C25.7654 12.3014 29.3962 8.91406 33.8521 8.91406C38.308 8.91406 41.9388 12.3014 41.9388 16.9753C41.9388 21.6166 38.308 25.0366 33.8521 25.0366ZM33.8521 12.0906C31.4097 12.0906 29.3054 14.075 29.3054 16.9753C29.3054 19.8466 31.4097 21.8601 33.8521 21.8601C36.2945 21.8601 38.3988 19.8429 38.3988 16.9753C38.3988 14.075 36.2945 12.0906 33.8521 12.0906Z" fill="white"/>
<path fill-rule="evenodd" clip-rule="evenodd" d="M51.2974 25.0366C46.8415 25.0366 43.2107 21.6166 43.2107 16.9753C43.2107 12.305 46.8415 8.91406 51.2974 8.91406C55.7533 8.91406 59.3841 12.3014 59.3841 16.9753C59.3841 21.6166 55.7533 25.0366 51.2974 25.0366ZM51.2974 12.0906C48.855 12.0906 46.7507 14.075 46.7507 16.9753C46.7507 19.8466 48.855 21.8601 51.2974 21.8601C53.7398 21.8601 55.8441 19.8429 55.8441 16.9753C55.8441 14.075 53.7398 12.0906 51.2974 12.0906Z" fill="white"/>
<path fill-rule="evenodd" clip-rule="evenodd" d="M76.102 23.8736C76.102 29.8269 72.5911 32.2583 68.4405 32.2583C64.5335 32.2583 62.1819 29.6451 61.2951 27.5081L64.3772 26.2251C64.926 27.5371 66.2707 29.0854 68.4369 29.0854C71.0937 29.0854 72.7401 27.4463 72.7401 24.3606V23.2012H72.6165C71.8242 24.1789 70.2977 25.033 68.3715 25.033C64.3408 25.033 60.6482 21.5221 60.6482 17.0044C60.6482 12.454 64.3408 8.91406 68.3715 8.91406C70.2941 8.91406 71.8206 9.76816 72.6165 10.7168H72.7401V9.40472H76.102V9.40108V23.8736ZM68.6877 12.0906C66.2453 12.0906 64.1991 14.1659 64.1991 17.0044C64.1991 19.8139 66.2453 21.8601 68.6877 21.8601C71.0973 21.8601 72.9909 19.8139 72.9909 17.0044C72.9909 14.1659 71.0973 12.0906 68.6877 12.0906Z" fill="white"/>
<path d="M81.6439 24.5421H78.1912V0.917969H81.6439V24.5421Z" fill="white"/>
<path fill-rule="evenodd" clip-rule="evenodd" d="M97.8486 21.4639C96.9617 22.776 94.8247 25.0366 91.1321 25.0366C86.5526 25.0366 83.1326 21.4966 83.1326 16.9753C83.1326 12.1815 86.5817 8.91406 90.7359 8.91406C94.9192 8.91406 96.9654 12.2432 97.6341 14.0423L98.0012 14.9582L87.225 19.4213C88.05 21.0387 89.333 21.8637 91.1321 21.8637C92.9348 21.8637 94.185 20.9769 95.1009 19.6321L97.8486 21.4639ZM93.847 13.7406C93.4509 12.7339 92.2587 12.0324 90.8558 12.0324C89.0568 12.0324 86.5526 13.6207 86.6435 16.7318L93.847 13.7406Z" fill="white"/>
<path d="M12.695 11.4595H24.2199C24.3326 12.0556 24.3907 12.7607 24.3907 13.5239C24.3907 16.0898 23.6893 19.2627 21.4286 21.5234C19.2298 23.8131 16.4203 25.0343 12.6986 25.0343C5.80038 25.0343 -0.000244141 19.4154 -0.000244141 12.5171C-0.000244141 5.6189 5.80038 0 12.6986 0C16.5148 0 19.2334 1.49741 21.276 3.44912L18.8627 5.86241C17.398 4.48858 15.4136 3.42004 12.695 3.42004C7.6576 3.42004 3.71783 7.47976 3.71783 12.5171C3.71783 17.5545 7.6576 21.6142 12.695 21.6142C15.9624 21.6142 17.8232 20.3022 19.0153 19.1101C19.9821 18.1433 20.6182 16.7622 20.8689 14.8759L12.695 14.8796V11.4595Z" fill="white"/>
</svg>
