<svg width="133" height="33" viewBox="0 0 133 33" fill="none" xmlns="http://www.w3.org/2000/svg">
<path fill-rule="evenodd" clip-rule="evenodd" d="M3.83275 22.5735C4.44825 25.1434 5.55727 26.0892 8.75476 25.4514L10.818 17.0412C11.3409 14.9522 11.6917 13.4628 12.0278 11.3378H12.0869C12.3231 13.4837 12.6594 14.9584 13.0898 17.0485C13.0898 17.0485 13.9296 20.8665 14.3597 22.8718C14.791 24.8765 15.9911 26.1399 19.1231 25.4521L24.0392 6.80823H20.07L18.3917 14.8688C17.9404 17.2152 17.5309 19.0485 17.2153 21.195H17.1593C16.8723 19.0699 16.5074 17.3092 16.0487 15.0232L14.3011 6.80823H10.1656L8.29627 14.8162C7.76669 17.2496 7.27137 19.2146 6.95639 21.2883H6.89935C6.57678 19.3354 6.14715 16.8658 5.68191 14.5102C5.68191 14.5102 4.57133 8.78252 4.18167 6.80823L0.00160717 6.80876L0.0012207 6.8068C0.0012207 6.8068 3.30542 20.3717 3.83275 22.5735ZM37.8393 25.4506H41.6183V21.4917V6.80591H37.8393V6.8068V25.4506ZM91.0629 20.5607C91.0629 22.457 91.4192 23.7856 92.1812 24.5972C92.8471 25.3071 93.9437 25.7668 95.2578 25.7668C96.3751 25.7668 97.4744 25.5545 97.9925 25.3611L97.9438 22.4025C97.5583 22.4975 97.1148 22.5736 96.5082 22.5736C95.2209 22.5736 94.7892 21.7475 94.7892 20.0449V14.7827H98.0804V11.2156H94.7892V6.80685H91.0627L91.0629 6.8068V20.5607ZM24.165 12.3778L24.9086 14.9292C25.8387 14.3417 27.3195 13.8555 28.7217 13.8555C31.0431 13.8495 31.4226 15.1706 31.4226 16.0178V16.2182C26.3642 16.2106 23.169 17.9642 23.169 21.5389C23.169 23.7214 24.7956 25.7667 27.6239 25.7667C29.3649 25.7667 30.821 25.071 31.6937 23.9564H31.7793C31.7793 23.9564 32.3572 26.3771 35.5408 25.4514C35.3736 24.4439 35.3193 23.3697 35.3193 22.0759V17.0953C35.3193 13.9209 33.9664 11.1289 29.394 11.1289L29.394 11.1288C27.0455 11.1288 25.1812 11.7895 24.165 12.3778ZM47.9278 13.3481H47.8718V11.445H44.2654V25.4515H48.0645V17.2373C48.0645 16.8522 48.1084 16.445 48.2426 16.0908C48.5574 15.2637 49.3254 14.2963 50.5516 14.2963C52.0845 14.2963 52.8018 15.5947 52.8018 17.4686V25.4514H56.5969V17.1378C56.5969 16.7702 56.6472 16.3274 56.7551 16.0024C57.0671 15.0616 57.8951 14.2962 59.0349 14.2962C60.589 14.2962 61.3348 15.572 61.3348 17.7769V25.4514H65.1325V17.202C65.1325 12.8514 62.9275 11.1289 60.4385 11.1289C59.3361 11.1289 58.4661 11.4058 57.6794 11.8897C57.0182 12.2962 56.4263 12.8737 55.9089 13.6342H55.8529C55.251 12.1247 53.8387 11.1289 51.9989 11.1289L51.9996 11.1288C49.6348 11.1288 48.5722 12.3295 47.9278 13.3481ZM67.6326 12.3778L68.3773 14.9292C69.3064 14.3417 70.7882 13.8555 72.1896 13.8555C74.5095 13.8495 74.8899 15.1706 74.8899 16.0178V16.2182C69.8322 16.2106 66.6366 17.9642 66.6366 21.5389C66.6366 23.7214 68.264 25.7667 71.0938 25.7667C72.8335 25.7667 74.2901 25.071 75.1611 23.9564H75.247C75.247 23.9564 75.8248 26.3771 79.0089 25.4514C78.8414 24.4439 78.7877 23.3697 78.7877 22.0759V17.0953C78.7877 13.9209 77.4345 11.1289 72.8616 11.1289L72.8616 11.1288C70.5136 11.1288 68.6497 11.7895 67.6326 12.3778ZM84.8337 14.0864H84.7276V11.4448H81.3077V25.4514H85.2063V18.2791C85.2063 17.8922 85.2298 17.5549 85.2909 17.2455C85.5792 15.7431 86.7262 14.7827 88.3724 14.7827C88.8244 14.7827 89.1478 14.8317 89.4977 14.8823V11.2155C89.2043 11.1561 89.0036 11.1287 88.6385 11.1287L88.6384 11.1288C87.1836 11.1288 85.5285 12.0696 84.8337 14.0864ZM31.5447 20.4475C31.5447 20.706 31.5222 20.9727 31.4508 21.2059C31.1583 22.1763 30.1548 22.9964 28.9004 22.9964C27.8546 22.9964 27.0239 22.4017 27.0239 21.1438C27.0239 19.2196 29.138 18.6877 31.5448 18.7002H31.5447V20.4475ZM75.0123 20.4475C75.0123 20.706 74.9894 20.9727 74.9184 21.2059C74.6259 22.1763 73.6228 22.9964 72.3684 22.9964C71.3224 22.9964 70.4915 22.4017 70.4915 21.1438C70.4915 19.2196 72.6056 18.6877 75.0124 18.7002H75.0123V20.4475Z" fill="white"/>
<path fill-rule="evenodd" clip-rule="evenodd" d="M116.322 1.57822L117.063 9.98354C117.145 10.4899 117.764 10.8806 118.512 10.8806C119.262 10.8796 119.879 10.4893 119.963 9.98354L120.707 1.57822C120.707 0.747337 119.735 0.0647686 118.513 0.0647686L118.512 0.0646973C117.292 0.0646973 116.322 0.747265 116.322 1.57822ZM104.627 8.09753C104.015 9.15614 104.123 10.3392 104.839 10.7542L112.475 14.3165C112.952 14.4943 113.599 14.1549 113.975 13.507C113.975 13.5069 113.975 13.5067 113.975 13.5066C114.351 12.8555 114.322 12.1234 113.926 11.7986L107.03 6.95283C106.85 6.8489 106.649 6.80214 106.438 6.80716L106.437 6.80705C105.804 6.82211 105.085 7.30253 104.627 8.09753ZM129.995 6.95272L123.098 11.7985C122.703 12.1233 122.674 12.8554 123.049 13.5065L123.05 13.5069C123.426 14.1548 124.072 14.4942 124.549 14.3164L132.187 10.7543C132.907 10.3392 133.01 9.15627 132.402 8.0976C131.942 7.30259 131.221 6.82218 130.588 6.80712L130.586 6.80705C130.375 6.80203 130.174 6.8488 129.995 6.95272ZM112.476 17.9444L104.84 21.5025C104.124 21.9194 104.016 23.1028 104.628 24.1626C105.238 25.2191 106.314 25.7214 107.03 25.307L113.927 20.465C114.323 20.1362 114.353 19.4043 113.976 18.7538L113.979 18.7553C113.674 18.2254 113.188 17.9024 112.76 17.8966L112.76 17.8967C112.661 17.8953 112.565 17.9106 112.476 17.9444ZM123.048 18.7554L123.051 18.754C122.676 19.4044 122.705 20.1364 123.1 20.4651L129.996 25.3071C130.711 25.7215 131.788 25.2192 132.401 24.1627C133.009 23.1029 132.906 21.9194 132.187 21.5026L124.551 17.9445C124.461 17.9107 124.365 17.8954 124.267 17.8968L124.267 17.8967C123.839 17.9025 123.354 18.2255 123.048 18.7554ZM117.064 22.2751L116.323 30.6801C116.323 31.5124 117.293 32.1936 118.513 32.1936C119.735 32.1936 120.706 31.5124 120.706 30.6801L119.964 22.2751C119.88 21.77 119.263 21.3811 118.513 21.3802H118.51H118.511C117.763 21.3811 117.145 21.77 117.064 22.2751Z" fill="white"/>
</svg>
