<svg width="121" height="21" viewBox="0 0 121 21" fill="none" xmlns="http://www.w3.org/2000/svg">
<path fill-rule="evenodd" clip-rule="evenodd" d="M14.3188 11.5801C15.006 12.3055 15.3496 13.2982 15.3496 14.5581C15.3496 16.0853 14.8533 17.3453 13.8224 18.2616C12.7915 19.1779 11.3407 19.6361 9.39352 19.6361H0.0012207V1.5387H9.35534C10.9971 1.5387 12.3334 1.99686 13.3261 2.875C14.3188 3.79132 14.8151 4.9749 14.8151 6.46393C14.8151 7.60933 14.5097 8.48747 13.8606 9.17471C13.2115 9.86195 12.5625 10.2056 11.837 10.2819L11.8752 10.3965C12.8297 10.4728 13.6315 10.8546 14.3188 11.5801ZM8.36266 9.02199C9.01172 9.02199 9.54624 8.83109 9.96622 8.44929C10.348 8.06749 10.5771 7.60933 10.5771 6.96027C10.5771 6.38757 10.3862 5.96759 10.0044 5.62396C9.6226 5.28034 9.12626 5.12762 8.55356 5.12762H4.46829V9.02199H8.36266ZM10.2335 15.5126C10.6153 15.169 10.8062 14.6726 10.8062 14.0236C10.8062 13.4127 10.6153 12.9545 10.1953 12.6109C9.8135 12.2673 9.27898 12.0764 8.6681 12.0764H4.46829V16.0471H8.59174C9.27898 16.0471 9.85168 15.8562 10.2335 15.5126ZM26.4982 19.6361V18.3379C25.4292 19.4833 24.0165 20.056 22.3366 20.056C20.733 20.056 19.4731 19.5215 18.5186 18.4907C17.5641 17.4598 17.0677 16.0853 17.0677 14.4054V6.08213H21.3439V13.4891C21.3439 14.2908 21.573 14.9399 21.9929 15.4362C22.4129 15.9326 22.9856 16.1617 23.6729 16.1617C24.551 16.1617 25.2383 15.8562 25.7346 15.2453C26.2309 14.6345 26.46 13.68 26.46 12.3818V6.08213H30.7744L30.8125 19.6361H26.4982ZM32.6834 19.6361V18.8343L38.0668 9.51833H32.8361V6.08213H44.061V6.88391L38.6776 16.1998H44.0992V19.6361H44.1374H32.6834ZM46.0082 19.6361V18.8343L51.3534 9.51833H46.1228V6.08213H57.3477V6.88391L51.9643 16.1998H57.3859L57.4241 19.6361H46.0082ZM71.6652 9.28925V13.1836H63.8383V19.6742H59.3713V1.5387H72.3525V5.43306H63.8383V9.28925H71.6652ZM93.3897 13.9854C93.657 15.6653 94.9169 16.6198 96.7877 16.6198C98.2768 16.6198 99.7658 16.0471 100.873 15.169L102.515 18.0325C100.988 19.3306 99.0404 20.056 96.7877 20.056C92.2443 20.056 89.1517 17.3071 89.1517 12.8782C89.1517 10.7783 89.839 9.06017 91.2134 7.72387C92.5879 6.38757 94.306 5.70032 96.3296 5.70032C98.2768 5.70032 99.9185 6.34939 101.255 7.68569C102.591 9.02199 103.278 10.7401 103.317 12.9164V13.9854H93.3897ZM93.4661 11.3128H99.0404C98.8495 10.6256 98.5058 10.091 98.0095 9.70923C97.5132 9.36561 96.9405 9.17471 96.3296 9.17471C95.6805 9.17471 95.1078 9.36561 94.5733 9.74741C94.0388 10.1292 93.657 10.6637 93.4661 11.3128ZM77.5832 13.9854C77.8504 15.6653 79.1104 16.6198 80.9812 16.6198C82.4702 16.6198 83.9592 16.0471 85.0665 15.169L86.7082 18.0325C85.181 19.3306 83.2338 20.056 80.9812 20.056C76.4378 20.056 73.3452 17.3071 73.3452 12.8782C73.3452 10.7783 74.0324 9.06017 75.4069 7.72387C76.7814 6.38757 78.4995 5.70032 80.523 5.70032C82.4702 5.70032 84.1119 6.34939 85.4482 7.68569C86.7846 9.02199 87.4718 10.7401 87.51 12.9164V13.9854H77.5832ZM77.6595 11.3128H83.2338C83.0429 10.6256 82.6993 10.091 82.2029 9.70923C81.7066 9.36561 81.1339 9.17471 80.523 9.17471C79.874 9.17471 79.3013 9.36561 78.7667 9.74741C78.2322 10.1292 77.8504 10.6637 77.6595 11.3128ZM115.687 19.6361V18.567C114.58 19.5597 113.205 20.056 111.487 20.056C109.654 20.056 108.089 19.3688 106.791 18.0325C105.493 16.6962 104.844 14.9781 104.844 12.8782C104.844 10.7783 105.493 9.06017 106.791 7.72387C108.089 6.38757 109.654 5.70032 111.487 5.70032C113.205 5.70032 114.618 6.19667 115.687 7.18935V0.202393H120.001V19.6361H115.687ZM115.725 12.8782C115.725 11.8855 115.381 11.0455 114.732 10.3583C114.083 9.70923 113.282 9.36561 112.403 9.36561C111.449 9.36561 110.685 9.70923 110.074 10.3583C109.464 11.0074 109.158 11.8473 109.158 12.8782C109.158 13.909 109.464 14.7872 110.074 15.4362C110.685 16.0853 111.449 16.3907 112.403 16.3907C113.282 16.3907 114.045 16.0471 114.732 15.3981C115.381 14.749 115.725 13.909 115.725 12.8782Z" fill="white"/>
</svg>
