<svg width="122" height="25" viewBox="0 0 122 25" fill="none" xmlns="http://www.w3.org/2000/svg">
<path fill-rule="evenodd" clip-rule="evenodd" d="M13.0348 11.4212C9.90376 11.4212 7.36571 8.88467 7.36571 5.75582C7.36571 2.62759 9.90376 0.0910645 13.0348 0.0910645C16.1658 0.0910645 18.7039 2.62759 18.7039 5.75582C18.7039 8.88467 16.1658 11.4212 13.0348 11.4212ZM0.0012207 18.5022C0.0012207 21.6308 2.5394 24.1671 5.67036 24.1671C8.80144 24.1671 11.3397 21.6308 11.3397 18.5022C11.3397 15.3733 8.80144 12.8376 5.67036 12.8376C2.5394 12.8376 0.0012207 15.3733 0.0012207 18.5022ZM14.7301 18.5022C14.7301 21.6308 17.2683 24.1671 20.3992 24.1671C23.5302 24.1671 26.0683 21.6308 26.0683 18.5022C26.0683 15.3733 23.5302 12.8371 20.3992 12.8371C17.2683 12.8371 14.7301 15.3733 14.7301 18.5022Z" fill="white"/>
<path fill-rule="evenodd" clip-rule="evenodd" d="M47.927 20.3471H48.6089C48.8733 20.3471 49.0899 20.1306 49.0899 19.8662V4.88032H49.087C49.0731 4.62786 48.8644 4.42565 48.6089 4.42565H46.4959C46.2404 4.42565 46.0317 4.62786 46.0175 4.88032H46.0149V6.09802C44.7203 4.50341 42.6792 3.84155 40.6323 3.84155C35.9798 3.84155 32.2083 7.6132 32.2083 12.266C32.2083 16.9191 35.9798 20.6909 40.6323 20.6909V20.6913C42.6792 20.6913 44.9098 19.8972 46.0147 18.4351L46.0149 18.437C46.0888 19.2774 46.7615 20.3471 47.927 20.3471ZM35.2828 12.266C35.2828 9.24182 37.6817 6.79006 40.6406 6.79006C43.5995 6.79006 45.998 9.24182 45.998 12.266C45.998 15.2908 43.5995 17.7424 40.6406 17.7424C37.6817 17.7424 35.2828 15.2908 35.2828 12.266Z" fill="white"/>
<path fill-rule="evenodd" clip-rule="evenodd" d="M82.3528 20.3466H83.0347C83.299 20.3466 83.5154 20.1301 83.5154 19.8658V4.87983H83.5127C83.4989 4.62737 83.29 4.42516 83.0347 4.42516H80.9217C80.6662 4.42516 80.4575 4.62737 80.4431 4.87983H80.4407V6.09753C79.146 4.50292 77.1048 3.84106 75.058 3.84106C70.4055 3.84106 66.634 7.61271 66.634 12.2656C66.634 16.9187 70.4055 20.6904 75.058 20.6904V20.6908C77.1048 20.6908 79.3356 19.8967 80.4405 18.4346L80.4407 18.4365C80.5146 19.2769 81.1873 20.3466 82.3528 20.3466ZM69.7085 12.2656C69.7085 9.24133 72.1074 6.78957 75.0662 6.78957C78.0253 6.78957 80.4237 9.24133 80.4237 12.2656C80.4237 15.2903 78.0253 17.7419 75.0662 17.7419C72.1074 17.7419 69.7085 15.2903 69.7085 12.2656Z" fill="white"/>
<path fill-rule="evenodd" clip-rule="evenodd" d="M120.837 20.3466H121.519C121.783 20.3466 122 20.1301 122 19.8658V4.87983H121.997C121.983 4.62737 121.774 4.42516 121.519 4.42516H119.406C119.15 4.42516 118.941 4.62737 118.927 4.87983H118.925V6.09753C117.63 4.50292 115.589 3.84106 113.542 3.84106C108.889 3.84106 105.118 7.61271 105.118 12.2656C105.118 16.9187 108.889 20.6904 113.542 20.6904V20.6908C115.589 20.6908 117.82 19.8967 118.924 18.4346L118.925 18.4365C118.999 19.2769 119.671 20.3466 120.837 20.3466ZM108.192 12.2656C108.192 9.24133 110.591 6.78957 113.55 6.78957C116.509 6.78957 118.908 9.24133 118.908 12.2656C118.908 15.2903 116.509 17.7419 113.55 17.7419C110.591 17.7419 108.192 15.2903 108.192 12.2656Z" fill="white"/>
<path fill-rule="evenodd" clip-rule="evenodd" d="M102.444 11.1963H102.444C102.444 6.82511 99.6868 3.87622 95.2895 3.87622C93.1903 3.87622 91.4695 5.09008 90.8618 6.13281C90.7305 5.31748 90.2976 4.46045 88.9552 4.46045H88.271C88.0064 4.46045 87.7903 4.6771 87.7903 4.94146V18.4731V18.4751V19.9287H87.793C87.8068 20.1808 88.0158 20.3832 88.2713 20.3832H90.3843C90.4166 20.3832 90.4483 20.3794 90.479 20.3734C90.493 20.3707 90.506 20.3652 90.5196 20.3613C90.5353 20.3565 90.5517 20.3528 90.5666 20.3466C90.5854 20.3388 90.6024 20.3283 90.62 20.3186C90.6285 20.3134 90.6375 20.3097 90.6458 20.3042C90.6669 20.2906 90.6862 20.2742 90.7049 20.2575C90.708 20.2544 90.7117 20.2524 90.7147 20.2496C90.7357 20.2292 90.7549 20.2068 90.7719 20.1836L90.772 20.1832C90.825 20.1105 90.8571 20.0231 90.8623 19.9287H90.865V11.0761C90.865 8.72846 92.7684 6.82511 95.1162 6.82511C97.4638 6.82511 99.3672 8.72846 99.3672 11.0761L99.3691 18.4756L99.3696 18.4731C99.3696 18.4796 99.3707 18.4864 99.3707 18.4934V19.9287H99.3735C99.3874 20.1808 99.5961 20.3832 99.8517 20.3832H101.965C101.997 20.3832 102.029 20.3794 102.059 20.3734C102.072 20.3711 102.083 20.3661 102.096 20.3626C102.113 20.3576 102.131 20.3533 102.147 20.3466C102.165 20.3395 102.18 20.3295 102.197 20.3203C102.207 20.3147 102.217 20.3106 102.227 20.3042C102.246 20.2914 102.264 20.2759 102.282 20.2606C102.286 20.2565 102.291 20.2534 102.295 20.2492C102.315 20.2299 102.333 20.209 102.35 20.1871C102.351 20.1855 102.352 20.1842 102.353 20.1825C102.405 20.1105 102.437 20.0237 102.443 19.93C102.443 19.9293 102.443 19.9287 102.443 19.9287H102.446V18.9512L102.445 18.9509L102.444 11.1963Z" fill="white"/>
<path fill-rule="evenodd" clip-rule="evenodd" d="M58.5668 17.7423C59.9764 17.7423 61.4337 17.0115 61.4337 15.7396C61.4337 14.0414 58.2582 13.7772 56.2631 13.0991C54.2676 12.4209 52.5489 11.0192 52.5489 8.74919C52.5489 5.27567 55.6438 3.84106 58.5325 3.84106C60.3627 3.84106 62.2511 4.4446 63.4754 5.30918C63.8971 5.62866 63.6403 5.99547 63.6403 5.99547L62.4716 7.66464C62.3403 7.85264 62.1106 8.01507 61.7809 7.81159C61.4512 7.60823 60.2948 6.7897 58.5325 6.7897C56.77 6.7897 55.7084 7.60363 55.7084 8.61247C55.7084 9.82224 57.0882 10.2027 58.7044 10.6151C61.5207 11.3743 64.593 12.2868 64.593 15.7396C64.593 18.8 61.7305 20.6913 58.5668 20.6913C56.1692 20.6913 54.128 20.0079 52.416 18.7515C52.0594 18.3946 52.3085 18.0632 52.3085 18.0632L53.4714 16.4025C53.708 16.0919 54.0064 16.2003 54.1368 16.2904C55.5474 17.2677 57.0871 17.7423 58.5668 17.7423Z" fill="white"/>
</svg>
